# xmcd
#
# Track frame offsets:
#  150
#  12841
#  30250
#  48881
#  70085
#  89531
#  105073
#  128574
#  147159
#  165292
#  181999
#  193016
#  210096
#  224454
#  238589
#  258766
#  276812
#  291332
#  309438
#  324894
#
# Disc length: 4537 seconds
#
# Revision: 0
# Processed by: cddbd v1.5.1PL0 Copyright (c) Steve Scherf et al.
# Submitted via: AltoMP3_Maker 3.0
#
DISCID=0111b714
DTITLE=Freedom Tracks Music - Homeless In America
DYEAR=1900
DGENRE=
TTITLE0=Teardrops of Blood
TTITLE1=These Days
TTITLE2=Boomers
TTITLE3=Taxes
TTITLE4=What You Preach
TTITLE5=U.S. Steal
TTITLE6=Homeless
TTITLE7=Writing On the Wall
TTITLE8=Favorite One
TTITLE9=Big Mac Donald
TTITLE10=Land of Good and Plenty
TTITLE11=Renegade
TTITLE12=All We Did
TTITLE13=Arm Your Private Lear Jet
TTITLE14=Forgotten Victims
TTITLE15=Anthem
TTITLE16=American
TTITLE17=Somebody
TTITLE18=Song of the Fisher King
TTITLE19=Slow Train
EXTD=
EXTT0=
EXTT1=
EXTT2=
EXTT3=
EXTT4=
EXTT5=
EXTT6=
EXTT7=
EXTT8=
EXTT9=
EXTT10=
EXTT11=
EXTT12=
EXTT13=
EXTT14=
EXTT15=
EXTT16=
EXTT17=
EXTT18=
EXTT19=
PLAYORDER=
